<svg
    width="37"
    height="18"
    viewBox="0 0 37 18"
    fill="none"
    xmlns="http://www.w3.org/2000/svg"
>
    <rect
        x="0.5"
        y="0.0214844"
        width="36"
        height="17"
        rx="1"
        fill="#27282C"
    />
    <path
        d="M29.7278 8.35929C29.0787 8.35929 28.4819 8.20847 27.9377 7.90683C27.4 7.60519 26.9704 7.18551 26.6491 6.6478C26.3344 6.10354 26.177 5.4937 26.177 4.81828C26.177 4.14287 26.3344 3.53631 26.6491 2.9986C26.9704 2.46089 27.4 2.04121 27.9377 1.73957C28.4819 1.43793 29.0787 1.28711 29.7278 1.28711C30.377 1.28711 30.9705 1.43793 31.5082 1.73957C32.0525 2.04121 32.4787 2.46089 32.7869 2.9986C33.1016 3.53631 33.259 4.14287 33.259 4.81828C33.259 5.4937 33.1016 6.10354 32.7869 6.6478C32.4721 7.18551 32.0459 7.60519 31.5082 7.90683C30.9705 8.20847 30.377 8.35929 29.7278 8.35929ZM29.7278 6.82485C30.2787 6.82485 30.718 6.64125 31.0459 6.27403C31.3803 5.90682 31.5475 5.42157 31.5475 4.81828C31.5475 4.20844 31.3803 3.72319 31.0459 3.36253C30.718 2.99532 30.2787 2.81171 29.7278 2.81171C29.1705 2.81171 28.7246 2.99204 28.3901 3.3527C28.0623 3.71336 27.8983 4.20188 27.8983 4.81828C27.8983 5.42812 28.0623 5.91665 28.3901 6.28387C28.7246 6.64453 29.1705 6.82485 29.7278 6.82485Z"
        fill="white"
    />
    <path
        d="M25.2526 1.38477V8.28973H23.5706V4.14872L22.0263 8.28973H20.669L19.1148 4.13888V8.28973H17.4329V1.38477H19.4198L21.3575 6.16513L23.2755 1.38477H25.2526Z"
        fill="white"
    />
    <path
        d="M8.85665 1.38477V2.73232H7.02713V8.28973H5.34515V2.73232H3.51562V1.38477H8.85665Z"
        fill="white"
    />
    <path
        d="M33.5157 11.1816V12.0224H32.3742V15.4897H31.3248V12.0224H30.1833V11.1816H33.5157Z"
        fill="white"
    />
    <path
        d="M25.564 13.3279C25.564 12.9024 25.656 12.5239 25.8401 12.1925C26.0242 11.8571 26.2799 11.5973 26.6072 11.4132C26.9386 11.225 27.313 11.1309 27.7303 11.1309C28.2417 11.1309 28.6794 11.2659 29.0436 11.5359C29.4077 11.8059 29.6511 12.1741 29.7739 12.6405H28.6201C28.5342 12.4605 28.4115 12.3235 28.2519 12.2294C28.0964 12.1353 27.9185 12.0882 27.718 12.0882C27.3948 12.0882 27.133 12.2007 26.9325 12.4257C26.732 12.6508 26.6318 12.9515 26.6318 13.3279C26.6318 13.7043 26.732 14.005 26.9325 14.23C27.133 14.455 27.3948 14.5675 27.718 14.5675C27.9185 14.5675 28.0964 14.5205 28.2519 14.4264C28.4115 14.3323 28.5342 14.1952 28.6201 14.0152H29.7739C29.6511 14.4816 29.4077 14.8498 29.0436 15.1198C28.6794 15.3858 28.2417 15.5187 27.7303 15.5187C27.313 15.5187 26.9386 15.4267 26.6072 15.2426C26.2799 15.0544 26.0242 14.7946 25.8401 14.4632C25.656 14.1318 25.564 13.7533 25.564 13.3279Z"
        fill="white"
    />
    <path
        d="M23.4708 12.0224V12.8938H24.8761V13.7039H23.4708V14.649H25.0602V15.4897H22.4214V11.1816H25.0602V12.0224H23.4708Z"
        fill="white"
    />
    <path
        d="M21.6608 15.4897H20.6114L18.8563 12.8325V15.4897H17.8069V11.1816H18.8563L20.6114 13.8512V11.1816H21.6608V15.4897Z"
        fill="white"
    />
    <path
        d="M17.0463 15.4897H15.9969L14.2418 12.8325V15.4897H13.1924V11.1816H14.2418L15.9969 13.8512V11.1816H17.0463V15.4897Z"
        fill="white"
    />
    <path
        d="M10.4051 15.5315C10.0001 15.5315 9.62777 15.4374 9.2882 15.2493C8.95271 15.0611 8.68474 14.7992 8.48427 14.4637C8.28789 14.1242 8.1897 13.7437 8.1897 13.3223C8.1897 12.9009 8.28789 12.5224 8.48427 12.187C8.68474 11.8515 8.95271 11.5896 9.2882 11.4014C9.62777 11.2132 10.0001 11.1191 10.4051 11.1191C10.8101 11.1191 11.1804 11.2132 11.5159 11.4014C11.8555 11.5896 12.1214 11.8515 12.3137 12.187C12.51 12.5224 12.6082 12.9009 12.6082 13.3223C12.6082 13.7437 12.51 14.1242 12.3137 14.4637C12.1173 14.7992 11.8514 15.0611 11.5159 15.2493C11.1804 15.4374 10.8101 15.5315 10.4051 15.5315ZM10.4051 14.5742C10.7488 14.5742 11.0229 14.4596 11.2274 14.2305C11.4361 14.0014 11.5404 13.6987 11.5404 13.3223C11.5404 12.9418 11.4361 12.639 11.2274 12.414C11.0229 12.1849 10.7488 12.0704 10.4051 12.0704C10.0573 12.0704 9.77915 12.1829 9.57049 12.4079C9.36593 12.6329 9.26365 12.9377 9.26365 13.3223C9.26365 13.7028 9.36593 14.0076 9.57049 14.2367C9.77915 14.4617 10.0573 14.5742 10.4051 14.5742Z"
        fill="white"
    />
    <path
        d="M3.51562 13.3279C3.51562 12.9024 3.60768 12.5239 3.79178 12.1925C3.97589 11.8571 4.23159 11.5973 4.55889 11.4132C4.89028 11.225 5.26463 11.1309 5.68194 11.1309C6.19334 11.1309 6.63111 11.2659 6.99523 11.5359C7.35935 11.8059 7.60278 12.1741 7.72551 12.6405H6.57178C6.48587 12.4605 6.36313 12.3235 6.20357 12.2294C6.0481 12.1353 5.87014 12.0882 5.66966 12.0882C5.34646 12.0882 5.08462 12.2007 4.88415 12.4257C4.68368 12.6508 4.58344 12.9515 4.58344 13.3279C4.58344 13.7043 4.68368 14.005 4.88415 14.23C5.08462 14.455 5.34646 14.5675 5.66966 14.5675C5.87014 14.5675 6.0481 14.5205 6.20357 14.4264C6.36313 14.3323 6.48587 14.1952 6.57178 14.0152H7.72551C7.60278 14.4816 7.35935 14.8498 6.99523 15.1198C6.63111 15.3858 6.19334 15.5187 5.68194 15.5187C5.26463 15.5187 4.89028 15.4267 4.55889 15.2426C4.23159 15.0544 3.97589 14.7946 3.79178 14.4632C3.60768 14.1318 3.51562 13.7533 3.51562 13.3279Z"
        fill="white"
    />
    <circle
        cx="12.9684"
        cy="4.81507"
        r="3.52796"
        fill="white"
    />
    <path
        d="M10.9956 5.79106C10.8409 5.26091 10.9885 4.7072 11.2616 4.22724C11.3574 4.05889 11.4513 3.93252 11.5687 3.77922C11.6809 3.63277 11.801 3.4921 11.9311 3.36162C12.0106 3.28193 12.0884 3.20011 12.1745 3.12772C12.2471 3.06674 12.3902 2.932 12.4944 2.98964C12.5638 3.02811 12.5784 3.11145 12.5706 3.18141C12.5621 3.25669 12.5167 3.35082 12.594 3.39842C12.6534 3.43492 12.7482 3.39462 12.7973 3.3458C12.9145 3.22901 13.5557 2.63682 13.6904 2.92668C13.7092 2.96713 13.6949 3.01519 13.6755 3.05549C13.631 3.14765 13.5712 3.27585 13.6793 3.3528C13.7619 3.4118 13.8553 3.35979 13.9366 3.32862C14.0796 3.27357 14.2297 3.22003 14.3831 3.2065C14.4615 3.1995 14.5767 3.19814 14.6107 3.28817C14.656 3.40785 14.5572 3.49834 14.4845 3.57726C14.4439 3.62137 14.3742 3.67535 14.3667 3.75367C14.3548 3.87868 14.5449 3.90545 14.6393 3.92263C14.6945 3.93008 14.7498 3.94164 14.8035 3.95655C14.8842 3.97875 14.9956 4.0303 14.9973 4.12854C14.9992 4.235 14.878 4.28959 14.8121 4.3375C14.8121 4.3375 14.477 4.51026 14.4683 4.70507C14.4621 4.84407 14.5809 4.92786 14.696 4.99508C14.7668 5.03645 14.849 5.05348 14.9188 5.09697C14.9635 5.1248 15.0086 5.17697 15.0031 5.23369C14.9974 5.29407 14.9304 5.34136 14.8815 5.366C14.8258 5.39413 14.7623 5.40098 14.703 5.41862C14.6328 5.4396 14.5642 5.46637 14.4993 5.50059C14.4367 5.53359 14.3673 5.57769 14.3365 5.64506C14.3001 5.72521 14.312 5.77737 14.3469 5.85599C14.3826 5.93599 14.4705 6.00503 14.4972 6.08974C14.5478 6.25033 14.3832 6.32226 14.2569 6.35009C14.0504 6.39571 13.8369 6.45868 13.6322 6.52711C13.3981 6.60543 13.1665 6.71994 12.9161 6.75492C12.728 6.78123 12.5364 6.7899 12.347 6.77636C11.9835 6.75036 11.6133 6.63706 11.3435 6.37959C11.176 6.21961 11.0602 6.0137 10.9953 5.79121L10.9956 5.79106Z"
        fill="#27282C"
    />
</svg>
